:SAMPLES-PER-SECOND 30
:FULLY-SPECIFIED
:DEGREES
176
root  67.3056 38.3664 -31.3372 -6.40782 -62.3356 8.08421
RightUpLeg  -21.3257 -15.2925 -14.6995
RightLeg  3.56466 -15.2388 3.75137
RightFoot  8.97696 -1.08475 6.45614
RightToes  0.000482159 0.542163 -0.142577
Spine  29.1228 -0.720879 -0.0706867
Spine1  13.3854 0.948242 -5.72161
HEad  20.6153 18.49 -6.35628
LeftShoulder1  7.16958 -13.6322 -35.7593
LeftArm  -0.662547 -24.7211 -51.5713
LeftForeArm  21.0772 -43.2944 -9.1212
LeftHand  -0.25398 0.0180481 5.50724
RightShoulder  5.69284 11.4426 32.1415
RightArm  -12.2114 -0.436623 31.7361
RightForeArm  -19.1925 57.4465 19.4728
RightHand  -0.211689 -0.975588 -5.40863
LeftUpLeg  -7.30737 5.24218 1.22242
LeftLeg  27.8778 -0.127758 0.264994
LeftFoot  -18.4469 -0.206951 -5.00306
LeftToes  1.06247e-005 4.65854e-005 -8.18501e-006
177
root  68.9243 38.3367 -31.1344 -5.79744 -63.6945 8.4711
RightUpLeg  -21.3068 -15.3607 -14.7802
RightLeg  -1.65501 -15.8877 5.26135
RightFoot  5.42401 -1.45688 10.0465
RightToes  0.000482159 0.542163 -0.142577
Spine  30.2423 -0.366322 -0.794736
Spine1  13.4443 1.29659 -6.23814
HEad  18.2016 15.2035 -5.15502
LeftShoulder1  7.10079 -13.6254 -35.3828
LeftArm  -0.836462 -26.4637 -51.254
LeftForeArm  21.5442 -43.72 -9.23684
LeftHand  -0.25398 0.0180481 5.50724
RightShoulder  5.76506 11.7229 31.9113
RightArm  -12.788 1.26872 32.2367
RightForeArm  -18.0988 56.4872 18.6656
RightHand  -0.197565 -0.419821 -4.55728
LeftUpLeg  -11.5819 10.198 -0.448858
LeftLeg  29.8908 -1.36568 -0.497352
LeftFoot  -17.0592 -0.00727069 -2.22411
LeftToes  1.06247e-005 4.65854e-005 -8.18501e-006
178
root  70.4699 38.4201 -30.9414 -4.1037 -65.9918 7.18022
RightUpLeg  -22.1076 -15.1355 -13.6288
RightLeg  -1.68523 -20.1566 6.52138
RightFoot  4.14916 -1.30662 9.78803
RightToes  0.000482159 0.542163 -0.142577
Spine  32.0933 -0.139412 -0.000484615
Spine1  12.9624 2.21502 -7.67013
HEad  16.0833 12.4401 -4.50907
LeftShoulder1  7.20632 -13.8114 -35.5427
LeftArm  -1.55142 -27.8992 -50.1923
LeftForeArm  21.9209 -43.8459 -9.25494
LeftHand  -0.25398 0.0180481 5.50724
RightShoulder  5.87183 11.8597 32.2697
RightArm  -12.9997 3.39105 32.4182
RightForeArm  -16.6588 54.8515 17.4196
RightHand  -0.16349 0.31915 -3.37344
LeftUpLeg  -14.6296 13.627 -1.28572
LeftLeg  30.5667 -2.26028 -1.08411
LeftFoot  -15.2421 0.0503436 -1.22147
LeftToes  1.06247e-005 4.65854e-005 -8.18501e-006
179
root  71.9212 38.6343 -30.7384 -2.72321 -68.7695 6.63153
RightUpLeg  -25.4909 -17.8069 -10.5776
RightLeg  5.68158 -21.005 4.81707
RightFoot  3.8105 -1.02299 7.87672
RightToes  0.000482159 0.542163 -0.142577
Spine  33.1328 0.200391 0.482221
Spine1  12.9322 3.1486 -8.9594
HEad  14.2144 10.6714 -4.48128
LeftShoulder1  7.29728 -14.1282 -35.3162
LeftArm  -3.15439 -28.9522 -49.0903
LeftForeArm  22.2975 -43.6175 -9.14936
LeftHand  -0.25398 0.0180481 5.50724
RightShoulder  6.00383 11.9631 32.8682
RightArm  -12.9082 6.35752 32.5259
RightForeArm  -14.7388 52.3726 15.748
RightHand  -0.0622563 0.909284 -1.23505
LeftUpLeg  -16.8521 17.0164 -2.75442
LeftLeg  28.7413 -2.79958 -1.31498
LeftFoot  -13.0668 0.077006 0.0458134
LeftToes  1.06247e-005 4.65854e-005 -8.18501e-006
180
root  73.2421 38.8854 -30.5667 -1.80325 -70.9356 6.94687
RightUpLeg  -30.5829 -27.0198 -3.37233
RightLeg  15.9347 -9.96388 -0.330481
RightFoot  2.71447 -0.88181 7.30102
RightToes  0.000482159 0.542163 -0.142577
Spine  33.1258 0.450064 0.088242
Spine1  13.6679 3.46783 -9.28864
HEad  12.3698 9.89397 -4.70242
LeftShoulder1  7.16809 -14.2625 -34.2893
LeftArm  -5.18497 -29.7585 -48.4032
LeftForeArm  22.7892 -43.1663 -8.96019
LeftHand  -0.25398 0.0180481 5.50724
RightShoulder  6.04698 12.0206 33.0015
RightArm  -12.8427 10.126 33.1751
RightForeArm  -11.9056 49.3437 13.9305
RightHand  0.103695 1.10638 1.75603
LeftUpLeg  -18.9363 20.0028 -4.89699
LeftLeg  25.7306 -3.12629 -1.29999
LeftFoot  -10.2813 0.04542 1.72259
LeftToes  1.06247e-005 4.65854e-005 -8.18501e-006
181
root  74.4597 39.1463 -30.4444 0.310074 -72.1664 5.85107
RightUpLeg  -32.5731 -27.2349 -0.781811
RightLeg  24.3555 -5.63505 -3.41307
RightFoot  0.704377 -0.738675 7.02457
RightToes  0.000482159 0.542163 -0.142577
Spine  33.1386 0.444021 -0.102968
Spine1  14.3143 3.28808 -8.79645
HEad  10.6646 9.39013 -4.74047
LeftShoulder1  6.95326 -14.1423 -33.3589
LeftArm  -6.62416 -30.2982 -47.723
LeftForeArm  23.3875 -42.6518 -8.74581
LeftHand  -0.25398 0.0180481 5.50724
RightShoulder  5.96905 11.8249 32.9923
RightArm  -12.4845 13.9177 33.6863
RightForeArm  -8.47521 46.4096 12.3492
RightHand  0.254061 1.16786 4.36706
LeftUpLeg  -20.6867 21.8831 -6.46149
LeftLeg  22.5504 -3.80131 -1.38142
LeftFoot  -7.02095 -0.0499538 2.52268
LeftToes  1.06247e-005 4.65854e-005 -8.18501e-006
182
root  75.5971 39.392 -30.3497 3.92107 -72.9547 2.56952
RightUpLeg  -31.234 -23.3453 -1.47271
RightLeg  32.0073 -6.9727 -4.91528
RightFoot  -0.913402 -0.560351 6.07369
RightToes  0.000482159 0.542163 -0.142577
Spine  33.9086 0.385186 0.501827
Spine1  14.2623 3.1533 -8.04479
HEad  9.24074 8.52063 -4.46942
LeftShoulder1  6.9231 -14.0691 -33.3508
LeftArm  -7.07563 -30.6372 -46.6285
LeftForeArm  23.8268 -41.9132 -8.47331
LeftHand  -0.25398 0.0180481 5.50724
RightShoulder  5.83761 11.4101 33.1941
RightArm  -11.3535 16.9795 33.4347
RightForeArm  -5.37346 43.7611 11.0758
RightHand  0.348887 1.60355 5.62061
LeftUpLeg  -21.5744 23.3079 -6.95297
LeftLeg  19.3553 -4.95792 -1.66541
LeftFoot  -3.98385 -0.129373 2.39425
LeftToes  1.06247e-005 4.65854e-005 -8.18501e-006
183
root  76.6483 39.5366 -30.2714 6.95653 -73.6253 -0.608078
RightUpLeg  -29.2179 -22.0375 -1.14789
RightLeg  38.802 -7.16721 -6.40834
RightFoot  -1.98501 -0.453015 5.36839
RightToes  0.000482159 0.542163 -0.142577
Spine  34.8962 0.355326 1.17471
Spine1  13.9115 3.14172 -7.48993
HEad  8.03464 7.57543 -3.89906
LeftShoulder1  7.01206 -14.1611 -33.6471
LeftArm  -7.16986 -30.8033 -45.4599
LeftForeArm  23.9292 -40.7671 -8.10135
LeftHand  -0.25398 0.0180481 5.50724
RightShoulder  5.7821 11.3067 33.0948
RightArm  -9.81075 18.9863 33.3944
RightForeArm  -3.25886 41.2504 10.0256
RightHand  0.388327 2.46282 5.5081
LeftUpLeg  -21.8336 23.9305 -6.84842
LeftLeg  16.5246 -4.99572 -2.18163
LeftFoot  -1.57129 -0.221552 2.68397
LeftToes  1.06247e-005 4.65854e-005 -8.18501e-006
184
root  77.6412 39.5474 -30.2214 8.36105 -74.4308 -1.99026
RightUpLeg  -26.9254 -21.5432 -0.960849
RightLeg  44.3759 -6.95406 -7.53318
RightFoot  -3.20414 -0.335227 4.38471
RightToes  0.000482159 0.542163 -0.142577
Spine  35.2868 0.356836 1.30109
Spine1  13.7853 3.08938 -7.23308
HEad  6.94827 7.09288 -3.16031
LeftShoulder1  7.03045 -14.2635 -33.5225
LeftArm  -7.46921 -30.8152 -44.5425
LeftForeArm  23.7745 -39.3375 -7.67371
LeftHand  -0.25398 0.0180481 5.50724
RightShoulder  5.83857 11.7964 32.2149
RightArm  -8.77792 20.0043 34.704
RightForeArm  -2.47752 39.156 9.27297
RightHand  0.332973 3.08284 4.27246
LeftUpLeg  -22.2643 22.6023 -6.51009
LeftLeg  14.527 -2.62712 -2.84123
LeftFoot  0.489439 -0.404685 3.8699
LeftToes  1.06247e-005 4.65854e-005 -8.18501e-006
185
root  78.6117 39.4432 -30.2077 8.67122 -75.6329 -1.89999
RightUpLeg  -24.7811 -20.808 -0.814255
RightLeg  48.0536 -6.3988 -7.89902
RightFoot  -4.1373 -0.203109 2.7817
RightToes  0.000482159 0.542163 -0.142577
Spine  35.2426 0.474914 1.03286
Spine1  13.5832 3.15342 -7.39041
HEad  6.09686 6.88834 -2.40363
LeftShoulder1  7.0512 -14.377 -33.3873
LeftArm  -7.73344 -30.6969 -43.4868
LeftForeArm  23.4161 -37.8772 -7.26853
LeftHand  -0.25398 0.0180481 5.50724
RightShoulder  5.97261 12.4446 31.4903
RightArm  -8.32544 20.4935 36.4165
RightForeArm  -3.41776 37.8368 8.91017
RightHand  0.157033 3.06964 1.85742
LeftUpLeg  -23.6237 21.6024 -6.95592
LeftLeg  13.5508 -0.695246 -3.14667
LeftFoot  2.20073 -0.586813 4.83905
LeftToes  1.06247e-005 4.65854e-005 -8.18501e-006
186
root  79.4984 39.3099 -30.2213 8.33623 -75.863 -2.44344
RightUpLeg  -19.9214 -21.4267 -0.895865
RightLeg  48.1117 -5.56049 -6.95575
RightFoot  -4.71497 -0.201134 2.91735
RightToes  0.000482159 0.542163 -0.142577
Spine  36.2786 0.1897 1.22775
Spine1  13.3858 2.91842 -7.36805
HEad  5.55676 6.43917 -1.76731
LeftShoulder1  7.23957 -14.6121 -33.9085
LeftArm  -7.5716 -30.5434 -41.9697
LeftForeArm  22.7348 -36.4513 -6.90968
LeftHand  -0.25398 0.0180481 5.50724
RightShoulder  6.14714 12.7687 31.8194
RightArm  -7.55054 21.1 37.1391
RightForeArm  -6.12932 36.693 8.71553
RightHand  -0.126066 3.21693 -1.92742
LeftUpLeg  -23.6624 20.5663 -6.69579
LeftLeg  12.9559 0.370101 -3.43224
LeftFoot  3.34471 -0.664947 5.00566
LeftToes  1.06247e-005 4.65854e-005 -8.18501e-006
187
root  80.4365 39.1484 -30.2657 7.92021 -76.6298 -2.71468
RightUpLeg  -14.5387 -22.263 -1.03657
RightLeg  44.4373 -4.87303 -5.41929
RightFoot  -6.36127 -0.286461 5.81527
RightToes  0.000482159 0.542163 -0.142577
Spine  37.4691 0.184172 1.25775
Spine1  12.9107 2.96265 -7.43925
HEad  5.02975 5.72016 -1.29226
LeftShoulder1  7.48532 -14.8609 -34.696
LeftArm  -7.19716 -30.5711 -40.4921
LeftForeArm  21.7551 -34.9586 -6.56495
LeftHand  -0.25398 0.0180481 5.50724
RightShoulder  6.31717 12.9169 32.5158
RightArm  -6.29646 22.1761 37.3748
RightForeArm  -8.99412 34.7105 8.28996
RightHand  -0.485396 4.5862 -5.99329
LeftUpLeg  -23.7329 18.7969 -6.03646
LeftLeg  11.8711 3.25434 -3.9306
LeftFoot  4.58796 -0.819542 5.63729
LeftToes  1.06247e-005 4.65854e-005 -8.18501e-006
188
root  81.4496 39.0229 -30.3499 9.02284 -77.7043 -4.05579
RightUpLeg  -9.71456 -23.6053 -0.504173
RightLeg  37.6391 -5.01042 -4.3915
RightFoot  -10.5111 -0.13634 8.23411
RightToes  0.000482159 0.542163 -0.142577
Spine  38.412 0.186494 1.68181
Spine1  12.6009 3.15367 -7.68532
HEad  3.97421 4.89908 -0.849541
LeftShoulder1  7.56515 -15.0054 -34.8061
LeftArm  -6.97936 -31.1542 -39.6998
LeftForeArm  20.684 -33.2524 -6.18422
LeftHand  -0.25398 0.0180481 5.50724
RightShoulder  6.43507 13.1985 32.5723
RightArm  -5.50998 23.6766 38.2105
RightForeArm  -9.66526 31.9614 7.55987
RightHand  -0.768006 6.64749 -7.86292
LeftUpLeg  -24.0683 16.1455 -4.88947
LeftLeg  10.0449 7.41427 -4.50249
LeftFoot  6.70237 -1.23047 7.45916
LeftToes  1.06247e-005 4.65854e-005 -8.18501e-006
